<svg width="20" height="18" viewBox="0 0 20 18" fill="none" xmlns="http://www.w3.org/2000/svg">
<path d="M18.4615 4.32H14.6154C14.6154 3.17426 14.1291 2.07546 13.2636 1.2653C12.398 0.455142 11.2241 0 10 0C8.77592 0 7.60198 0.455142 6.73643 1.2653C5.87088 2.07546 5.38462 3.17426 5.38462 4.32H1.53846C1.13044 4.32 0.739122 4.47171 0.450605 4.74177C0.162087 5.01182 0 5.37809 0 5.76V16.56C0 16.9419 0.162087 17.3082 0.450605 17.5782C0.739122 17.8483 1.13044 18 1.53846 18H18.4615C18.8696 18 19.2609 17.8483 19.5494 17.5782C19.8379 17.3082 20 16.9419 20 16.56V5.76C20 5.37809 19.8379 5.01182 19.5494 4.74177C19.2609 4.47171 18.8696 4.32 18.4615 4.32ZM10 1.44C10.8161 1.44 11.5987 1.74343 12.1757 2.28353C12.7527 2.82364 13.0769 3.55618 13.0769 4.32H6.92308C6.92308 3.55618 7.24725 2.82364 7.82429 2.28353C8.40132 1.74343 9.18395 1.44 10 1.44ZM18.4615 16.56H1.53846V5.76H5.38462V7.2C5.38462 7.39096 5.46566 7.57409 5.60992 7.70912C5.75418 7.84414 5.94983 7.92 6.15385 7.92C6.35786 7.92 6.55352 7.84414 6.69777 7.70912C6.84203 7.57409 6.92308 7.39096 6.92308 7.2V5.76H13.0769V7.2C13.0769 7.39096 13.158 7.57409 13.3022 7.70912C13.4465 7.84414 13.6421 7.92 13.8462 7.92C14.0502 7.92 14.2458 7.84414 14.3901 7.70912C14.5343 7.57409 14.6154 7.39096 14.6154 7.2V5.76H18.4615V16.56Z" fill="white"/>
</svg>
