<svg width="24" height="24" viewBox="0 0 24 24" fill="none" xmlns="http://www.w3.org/2000/svg">
<g clip-path="url(#clip0_698_1451)">
<path d="M11.9999 0C18.6272 0 23.9993 5.37213 23.9993 11.9994C23.9993 18.6267 18.6272 23.9988 11.9999 23.9988C10.0848 24.0014 8.19707 23.5438 6.49577 22.6645L1.9048 23.9448C1.64866 24.0163 1.37813 24.0184 1.12091 23.9509C0.863694 23.8834 0.629045 23.7487 0.441008 23.5607C0.25297 23.3726 0.118304 23.138 0.0508084 22.8808C-0.0166875 22.6236 -0.0145867 22.353 0.0568955 22.0969L1.33843 17.5095C0.456898 15.8067 -0.00199415 13.9168 0.000498381 11.9994C0.000498381 5.37213 5.37263 0 11.9999 0ZM11.9999 1.79991C9.29482 1.79991 6.70054 2.8745 4.78777 4.78727C2.87499 6.70005 1.80041 9.29432 1.80041 11.9994C1.80041 13.7633 2.24799 15.4588 3.08794 16.9635L3.26793 17.2875L1.9336 22.0681L6.71776 20.7338L7.04174 20.9137C8.40294 21.6705 9.91936 22.1056 11.4747 22.1855C13.0301 22.2653 14.5831 21.988 16.0147 21.3746C17.4463 20.7613 18.7184 19.8283 19.7334 18.6471C20.7485 17.4659 21.4796 16.0679 21.8707 14.5604C22.2617 13.0529 22.3024 11.4758 21.9894 9.95013C21.6765 8.42446 21.0184 6.99071 20.0655 5.75883C19.1125 4.52695 17.8902 3.52965 16.4921 2.84341C15.094 2.15716 13.5573 1.80021 11.9999 1.79991ZM8.10009 13.1993H13.4974C13.7254 13.1994 13.9449 13.286 14.1115 13.4417C14.2782 13.5974 14.3795 13.8105 14.395 14.0379C14.4105 14.2654 14.3392 14.4903 14.1953 14.6672C14.0514 14.8441 13.8457 14.9598 13.6198 14.9908L13.4974 14.9992H8.10009C7.87207 14.9992 7.65259 14.9126 7.48597 14.7569C7.31936 14.6012 7.21805 14.3881 7.20251 14.1606C7.18696 13.9331 7.25835 13.7082 7.40224 13.5314C7.54614 13.3545 7.75181 13.2388 7.9777 13.2077L8.10009 13.1993ZM8.10009 8.99955H15.9057C16.1336 8.99992 16.3529 9.08675 16.5193 9.24251C16.6857 9.39827 16.7868 9.61136 16.8021 9.83876C16.8175 10.0662 16.746 10.2909 16.6022 10.4677C16.4583 10.6444 16.2527 10.76 16.0269 10.7911L15.9057 10.7995H8.10009C7.87207 10.7994 7.65259 10.7128 7.48597 10.5571C7.31936 10.4014 7.21805 10.1883 7.20251 9.96084C7.18696 9.73336 7.25835 9.50845 7.40224 9.33157C7.54614 9.15469 7.75181 9.03903 7.9777 9.00795L8.10009 8.99955Z" fill="#1E1E1E"/>
</g>
<defs>
<clipPath id="clip0_698_1451">
<rect width="24" height="24" fill="white"/>
</clipPath>
</defs>
</svg>
