<svg width="15" height="15" viewBox="0 0 15 15" fill="none" xmlns="http://www.w3.org/2000/svg">
<path d="M14.1405 13.6099C14.2109 13.6803 14.2504 13.7757 14.2504 13.8752C14.2504 13.9747 14.2109 14.0702 14.1405 14.1405C14.0702 14.2109 13.9747 14.2504 13.8752 14.2504C13.7757 14.2504 13.6803 14.2109 13.6099 14.1405L7.12521 7.65583L0.640521 14.1405C0.570156 14.2109 0.47472 14.2504 0.375208 14.2504C0.275697 14.2504 0.180261 14.2109 0.109896 14.1405C0.0395309 14.0702 1.96161e-09 13.9747 0 13.8752C-1.96161e-09 13.7757 0.0395306 13.6803 0.109896 13.6099L6.59458 7.12521L0.109896 0.640521C0.0395306 0.570156 0 0.47472 0 0.375208C0 0.275697 0.0395306 0.180261 0.109896 0.109896C0.180261 0.0395306 0.275697 0 0.375208 0C0.47472 0 0.570156 0.0395306 0.640521 0.109896L7.12521 6.59458L13.6099 0.109896C13.6447 0.0750545 13.6861 0.0474169 13.7316 0.0285609C13.7771 0.00970488 13.8259 9.7129e-10 13.8752 0C13.9245 -9.71289e-10 13.9733 0.00970488 14.0188 0.0285609C14.0643 0.0474169 14.1057 0.0750545 14.1405 0.109896C14.1754 0.144737 14.203 0.1861 14.2219 0.231622C14.2407 0.277145 14.2504 0.325935 14.2504 0.375208C14.2504 0.424482 14.2407 0.473272 14.2219 0.518795C14.203 0.564317 14.1754 0.60568 14.1405 0.640521L7.65583 7.12521L14.1405 13.6099Z" fill="black"/>
</svg>
