<svg width="33" height="33" viewBox="0 0 33 33" fill="none" xmlns="http://www.w3.org/2000/svg">
<path d="M26.1333 18.007L18.3815 25.7602C17.8676 26.274 17.1707 26.5626 16.444 26.5626C15.7172 26.5626 15.0203 26.274 14.5064 25.7602L6.75458 18.0084C6.11379 17.3732 5.60477 16.6177 5.25675 15.7852C4.90873 14.9528 4.72855 14.0598 4.72658 13.1575C4.7246 12.2552 4.90086 11.3615 5.24523 10.5275C5.58961 9.69351 6.09531 8.93577 6.73332 8.29777C7.37132 7.65976 8.12906 7.15406 8.96303 6.80969C9.797 6.46531 10.6908 6.28906 11.5931 6.29103C12.4953 6.29301 13.3883 6.47318 14.2208 6.8212C15.0532 7.16922 15.8087 7.67824 16.444 8.31903C17.7342 7.06092 19.4681 6.36179 21.2702 6.37308C23.0722 6.38437 24.7973 7.10518 26.0716 8.37936C27.346 9.65354 28.067 11.3785 28.0786 13.1805C28.0901 14.9826 27.3912 16.7166 26.1333 18.007Z" stroke="black" stroke-width="1.3703" stroke-linecap="round" stroke-linejoin="round"/>
</svg>
