<svg width="20" height="18" viewBox="0 0 20 18" fill="none" xmlns="http://www.w3.org/2000/svg">
<path d="M14.4643 0C12.6205 0 11.0063 0.832696 10 2.24022C8.99375 0.832696 7.37946 0 5.53571 0C4.06806 0.00173735 2.66099 0.614826 1.6232 1.70476C0.585411 2.7947 0.00165423 4.27247 0 5.81387C0 12.3779 9.26696 17.691 9.66161 17.9105C9.76562 17.9692 9.88189 18 10 18C10.1181 18 10.2344 17.9692 10.3384 17.9105C10.733 17.691 20 12.3779 20 5.81387C19.9983 4.27247 19.4146 2.7947 18.3768 1.70476C17.339 0.614826 15.9319 0.00173735 14.4643 0ZM10 16.3914C8.36964 15.3936 1.42857 10.8485 1.42857 5.81387C1.42999 4.67031 1.86316 3.57402 2.63309 2.7654C3.40302 1.95678 4.44687 1.50184 5.53571 1.50035C7.27232 1.50035 8.73036 2.47183 9.33929 4.0322C9.3931 4.16979 9.48465 4.28747 9.60229 4.37029C9.71994 4.45312 9.85837 4.49734 10 4.49734C10.1416 4.49734 10.2801 4.45312 10.3977 4.37029C10.5154 4.28747 10.6069 4.16979 10.6607 4.0322C11.2696 2.46902 12.7277 1.50035 14.4643 1.50035C15.5531 1.50184 16.597 1.95678 17.3669 2.7654C18.1368 3.57402 18.57 4.67031 18.5714 5.81387C18.5714 10.841 11.6286 15.3927 10 16.3914Z" fill="white"/>
</svg>
