<svg width="24" height="24" viewBox="0 0 24 24" fill="none" xmlns="http://www.w3.org/2000/svg">
<path d="M17.3571 2C15.1446 2 13.2075 2.97148 12 4.61358C10.7925 2.97148 8.85536 2 6.64286 2C4.88167 2.00203 3.19319 2.7173 1.94784 3.98889C0.702493 5.26048 0.00198508 6.98455 0 8.78285C0 16.4409 11.1204 22.6396 11.5939 22.8955C11.7187 22.9641 11.8583 23 12 23C12.1417 23 12.2813 22.9641 12.4061 22.8955C12.8796 22.6396 24 16.4409 24 8.78285C23.998 6.98455 23.2975 5.26048 22.0522 3.98889C20.8068 2.7173 19.1183 2.00203 17.3571 2ZM12 21.1233C10.0436 19.9592 1.71429 14.6566 1.71429 8.78285C1.71599 7.4487 2.23579 6.16969 3.15971 5.2263C4.08363 4.28291 5.33624 3.75215 6.64286 3.75041C8.72679 3.75041 10.4764 4.8838 11.2071 6.70423C11.2717 6.86476 11.3816 7.00205 11.5227 7.09868C11.6639 7.1953 11.83 7.24689 12 7.24689C12.17 7.24689 12.3361 7.1953 12.4772 7.09868C12.6184 7.00205 12.7283 6.86476 12.7929 6.70423C13.5236 4.88052 15.2732 3.75041 17.3571 3.75041C18.6638 3.75215 19.9164 4.28291 20.8403 5.2263C21.7642 6.16969 22.284 7.4487 22.2857 8.78285C22.2857 14.6478 13.9543 19.9581 12 21.1233Z" fill="white"/>
</svg>
