<svg width="20" height="19" viewBox="0 0 20 19" fill="none" xmlns="http://www.w3.org/2000/svg">
<path d="M14.4643 0C12.6205 0 11.0063 0.878957 10 2.36467C8.99375 0.878957 7.37946 0 5.53571 0C4.06806 0.00183387 2.66099 0.648983 1.6232 1.79947C0.585411 2.94996 0.00165423 4.50983 0 6.13686C0 13.0656 9.26696 18.6739 9.66161 18.9055C9.76562 18.9675 9.88189 19 10 19C10.1181 19 10.2344 18.9675 10.3384 18.9055C10.733 18.6739 20 13.0656 20 6.13686C19.9983 4.50983 19.4146 2.94996 18.3768 1.79947C17.339 0.648983 15.9319 0.00183387 14.4643 0ZM10 17.302C8.36964 16.2488 1.42857 11.4512 1.42857 6.13686C1.42999 4.92977 1.86316 3.77257 2.63309 2.91903C3.40302 2.06549 4.44687 1.58528 5.53571 1.58371C7.27232 1.58371 8.73036 2.60916 9.33929 4.25621C9.3931 4.40145 9.48465 4.52567 9.60229 4.61309C9.71994 4.70051 9.85837 4.74719 10 4.74719C10.1416 4.74719 10.2801 4.70051 10.3977 4.61309C10.5154 4.52567 10.6069 4.40145 10.6607 4.25621C11.2696 2.60619 12.7277 1.58371 14.4643 1.58371C15.5531 1.58528 16.597 2.06549 17.3669 2.91903C18.1368 3.77257 18.57 4.92977 18.5714 6.13686C18.5714 11.4433 11.6286 16.2478 10 17.302Z" fill="white"/>
</svg>
