<svg width="24" height="24" viewBox="0 0 24 24" fill="none" xmlns="http://www.w3.org/2000/svg">
<path d="M20.5 9.65909C20.5 15.6591 11.5 20.75 11.5 20.75C11.5 20.75 2.5 15.6591 2.5 9.65909C2.5 8.35712 2.99234 7.10847 3.86871 6.18784C4.74508 5.26721 5.9337 4.75 7.17308 4.75C9.12798 4.75 10.8025 5.86909 11.5 7.65909C12.1975 5.86909 13.872 4.75 15.8269 4.75C17.0663 4.75 18.2549 5.26721 19.1313 6.18784C20.0077 7.10847 20.5 8.35712 20.5 9.65909Z" fill="#174D38"/>
<path d="M15.9643 3.75C14.1205 3.75 12.5063 4.5827 11.5 5.99022C10.4938 4.5827 8.87946 3.75 7.03571 3.75C5.56806 3.75174 4.16099 4.36483 3.1232 5.45476C2.08541 6.5447 1.50165 8.02247 1.5 9.56387C1.5 16.1279 10.767 21.441 11.1616 21.6605C11.2656 21.7192 11.3819 21.75 11.5 21.75C11.6181 21.75 11.7344 21.7192 11.8384 21.6605C12.233 21.441 21.5 16.1279 21.5 9.56387C21.4983 8.02247 20.9146 6.5447 19.8768 5.45476C18.839 4.36483 17.4319 3.75174 15.9643 3.75ZM11.5 20.1414C9.86964 19.1436 2.92857 14.5985 2.92857 9.56387C2.92999 8.42031 3.36316 7.32402 4.13309 6.5154C4.90302 5.70678 5.94687 5.25184 7.03571 5.25035C8.77232 5.25035 10.2304 6.22183 10.8393 7.7822C10.8931 7.91979 10.9846 8.03747 11.1023 8.12029C11.2199 8.20312 11.3584 8.24734 11.5 8.24734C11.6416 8.24734 11.7801 8.20312 11.8977 8.12029C12.0154 8.03747 12.1069 7.91979 12.1607 7.7822C12.7696 6.21902 14.2277 5.25035 15.9643 5.25035C17.0531 5.25184 18.097 5.70678 18.8669 6.5154C19.6368 7.32402 20.07 8.42031 20.0714 9.56387C20.0714 14.591 13.1286 19.1427 11.5 20.1414Z" fill="#174D38"/>
</svg>
