<svg width="17" height="16" viewBox="0 0 17 16" fill="none" xmlns="http://www.w3.org/2000/svg">
<path d="M16.9036 15.0264C15.6601 12.9222 13.7437 11.4134 11.5072 10.6982C12.6135 10.0536 13.473 9.07145 13.9537 7.90253C14.4344 6.73361 14.5098 5.44255 14.1683 4.22763C13.8268 3.01271 13.0873 1.9411 12.0633 1.17736C11.0393 0.413627 9.78743 0 8.5 0C7.21257 0 5.96073 0.413627 4.93673 1.17736C3.91273 1.9411 3.17319 3.01271 2.83167 4.22763C2.49016 5.44255 2.56556 6.73361 3.04629 7.90253C3.52702 9.07145 4.38651 10.0536 5.49276 10.6982C3.25631 11.4126 1.33994 12.9214 0.096379 15.0264C0.0507755 15.0992 0.020527 15.1802 0.00741823 15.2646C-0.00569053 15.349 -0.00139402 15.4351 0.0200543 15.5179C0.0415025 15.6006 0.0796682 15.6783 0.132299 15.7464C0.18493 15.8145 0.250961 15.8716 0.326495 15.9143C0.402029 15.957 0.485536 15.9844 0.57209 15.9951C0.658644 16.0057 0.746491 15.9992 0.830448 15.976C0.914405 15.9529 0.992772 15.9135 1.06092 15.8602C1.12908 15.8069 1.18563 15.7408 1.22726 15.6658C2.76558 13.0637 5.48459 11.5101 8.5 11.5101C11.5154 11.5101 14.2344 13.0637 15.7727 15.6658C15.8144 15.7408 15.8709 15.8069 15.9391 15.8602C16.0072 15.9135 16.0856 15.9529 16.1696 15.976C16.2535 15.9992 16.3414 16.0057 16.4279 15.9951C16.5145 15.9844 16.598 15.957 16.6735 15.9143C16.749 15.8716 16.8151 15.8145 16.8677 15.7464C16.9203 15.6783 16.9585 15.6006 16.9799 15.5179C17.0014 15.4351 17.0057 15.349 16.9926 15.2646C16.9795 15.1802 16.9492 15.0992 16.9036 15.0264ZM3.92749 5.75614C3.92749 4.87101 4.19566 4.00576 4.6981 3.2698C5.20053 2.53383 5.91466 1.96022 6.75018 1.6215C7.58569 1.28277 8.50507 1.19414 9.39205 1.36683C10.279 1.53951 11.0938 1.96574 11.7333 2.59162C12.3727 3.2175 12.8082 4.01493 12.9847 4.88305C13.1611 5.75118 13.0705 6.65101 12.7245 7.46877C12.3784 8.28653 11.7923 8.98547 11.0404 9.47723C10.2884 9.96898 9.40436 10.2315 8.5 10.2315C7.28769 10.2302 6.12541 9.75827 5.26818 8.91926C4.41095 8.08026 3.92879 6.94268 3.92749 5.75614Z" fill="white"/>
</svg>
