<svg width="24" height="24" viewBox="0 0 24 24" fill="none" xmlns="http://www.w3.org/2000/svg">
<path d="M2.22923 1.99957H21.0283C21.216 1.99957 21.3737 2.06333 21.5012 2.19083C21.6287 2.31834 21.6924 2.47639 21.6924 2.66499C21.6924 2.85359 21.6287 3.01121 21.5012 3.13783C21.3737 3.26445 21.216 3.32776 21.0283 3.32776H2.22923C2.04063 3.32776 1.88302 3.264 1.7564 3.1365C1.62978 3.00899 1.56603 2.85094 1.56514 2.66234C1.56426 2.47373 1.62801 2.31612 1.7564 2.1895C1.88479 2.06288 2.0424 1.99957 2.22923 1.99957ZM2.74058 21.9223C2.43687 21.9223 2.18186 21.8196 1.97555 21.6142C1.76924 21.4088 1.66653 21.1537 1.66741 20.8491V13.9532H1.0777C0.742112 13.9532 0.462751 13.8182 0.239616 13.5481C0.0164815 13.2781 -0.050813 12.9752 0.0377325 12.6396L1.36592 6.81689C1.42081 6.57428 1.54832 6.37505 1.74843 6.21921C1.94854 6.06248 2.17611 5.98412 2.43112 5.98412H20.8264C21.0815 5.98412 21.309 6.06204 21.5091 6.21788C21.7092 6.37461 21.8368 6.57428 21.8917 6.81689L23.2198 12.6396C23.3084 12.9761 23.2411 13.2789 23.018 13.5481C22.7948 13.8173 22.5159 13.9523 22.1812 13.9532H21.5902V21.2582C21.5902 21.4468 21.5264 21.6044 21.3989 21.7311C21.2714 21.8577 21.1133 21.9214 20.9247 21.9223C20.7361 21.9232 20.5785 21.8594 20.4519 21.7311C20.3253 21.6027 20.262 21.4451 20.262 21.2582V13.9532H13.6211V20.8491C13.6211 21.1537 13.5183 21.4088 13.3129 21.6142C13.1075 21.8196 12.8525 21.9223 12.5479 21.9223H2.74058ZM2.9956 20.5941H12.2929V13.9532H2.9956V20.5941ZM1.37521 12.625H21.8824L20.6498 7.3123H2.60777L1.37521 12.625Z" fill="#1E1E1E"/>
</svg>
