<svg width="300" height="400" viewBox="0 0 300 400" fill="none" xmlns="http://www.w3.org/2000/svg">
<g clip-path="url(#clip0_823_708)">
<path d="M184.323 188.972C184.506 188.97 184.689 188.967 184.877 188.965C186.226 188.961 187.36 189.126 188.549 189.806C188.697 189.889 188.844 189.973 188.996 190.059C190.31 190.92 191.107 192.137 191.553 193.633C191.907 195.374 191.792 197.03 190.821 198.555C189.967 199.68 189.014 200.497 187.742 201.109C187.542 201.109 187.342 201.109 187.136 201.109C187.207 201.215 187.278 201.321 187.351 201.431C187.566 201.754 187.782 202.078 187.997 202.401C188.25 202.78 188.504 203.157 188.76 203.534C189.431 204.527 190.072 205.524 190.665 206.566C191.652 208.457 191.652 208.457 193.226 209.788C194.178 210.013 195.06 209.953 196.017 209.788C196.043 209.642 196.07 209.496 196.097 209.346C196.214 208.803 196.367 208.303 196.552 207.779C196.621 207.584 196.689 207.389 196.759 207.188C196.834 206.978 196.908 206.768 196.985 206.551C197.063 206.33 197.141 206.109 197.221 205.882C197.475 205.161 197.73 204.441 197.985 203.72C198.16 203.226 198.334 202.731 198.509 202.237C199.022 200.784 199.538 199.332 200.054 197.88C200.163 197.572 200.163 197.572 200.275 197.258C200.649 196.205 201.025 195.153 201.402 194.101C201.511 193.797 201.62 193.493 201.729 193.188C201.878 192.771 202.029 192.355 202.179 191.938C202.262 191.709 202.344 191.481 202.429 191.245C202.681 190.604 202.936 189.999 203.283 189.403C203.918 189.196 203.918 189.196 204.658 189.125C204.901 189.099 205.144 189.072 205.394 189.045C206.039 189.003 206.674 188.996 207.32 188.999C208.01 190.614 208.641 192.24 209.225 193.896C209.348 194.24 209.348 194.24 209.473 194.592C209.736 195.33 209.997 196.069 210.259 196.807C210.619 197.822 210.98 198.837 211.341 199.851C211.43 200.1 211.518 200.348 211.609 200.604C212.124 202.049 212.642 203.493 213.169 204.934C213.227 205.093 213.285 205.252 213.345 205.416C213.606 206.129 213.868 206.842 214.131 207.554C214.264 207.916 214.264 207.916 214.4 208.285C214.476 208.49 214.551 208.695 214.629 208.906C214.788 209.384 214.788 209.384 214.788 209.788C215.32 209.788 215.853 209.788 216.402 209.788C216.402 210.188 216.402 210.587 216.402 210.999C213.139 210.999 209.875 210.999 206.512 210.999C206.512 210.599 206.512 210.2 206.512 209.788C206.979 209.788 207.445 209.788 207.925 209.788C207.459 208.123 206.993 206.458 206.512 204.742C203.915 204.642 203.915 204.642 201.265 204.54C200.765 207.138 200.765 207.138 200.256 209.788C200.788 209.788 201.321 209.788 201.87 209.788C201.87 210.188 201.87 210.587 201.87 210.999C196.742 210.999 191.613 210.999 186.329 210.999C185.396 209.134 184.464 207.269 183.503 205.348C182.804 204.049 182.804 204.049 182.09 202.724C182.09 202.59 182.09 202.457 182.09 202.32C181.191 202.42 181.191 202.42 180.274 202.522C180.274 204.92 180.274 207.317 180.274 209.788C180.807 209.788 181.34 209.788 181.889 209.788C181.889 210.188 181.889 210.587 181.889 210.999C178.958 210.999 176.027 210.999 173.008 210.999C173.008 210.599 173.008 210.2 173.008 209.788C173.541 209.788 174.074 209.788 174.622 209.788C174.622 203.46 174.622 197.133 174.622 190.614C174.09 190.614 173.557 190.614 173.008 190.614C173.008 190.147 173.008 189.681 173.008 189.201C174.191 189.171 175.375 189.143 176.558 189.114C176.959 189.105 177.359 189.095 177.759 189.085C179.947 189.031 182.135 188.987 184.323 188.972ZM180.274 190.614C180.274 194.01 180.274 197.407 180.274 200.907C181.866 200.907 183.089 200.604 184.386 199.658C185.389 198.584 185.768 197.529 185.824 196.063C185.762 194.44 185.173 193.133 184.075 191.94C182.867 190.903 181.861 190.614 180.274 190.614ZM203.283 194.045C203.052 195.176 202.822 196.307 202.593 197.439C202.515 197.823 202.437 198.208 202.358 198.593C202.245 199.146 202.133 199.7 202.022 200.254C201.986 200.425 201.951 200.596 201.915 200.773C201.882 200.934 201.85 201.096 201.817 201.262C201.788 201.404 201.759 201.545 201.73 201.69C201.645 202.213 201.645 202.213 201.668 203.127C203.134 203.127 204.599 203.127 206.109 203.127C205.428 200.063 204.565 197.058 203.687 194.045C203.553 194.045 203.42 194.045 203.283 194.045Z" fill="#174D38"/>
<path d="M128.605 189.201C131.47 189.201 134.334 189.201 137.284 189.201C137.284 189.667 137.284 190.134 137.284 190.614C136.752 190.614 136.219 190.614 135.67 190.614C135.67 193.545 135.67 196.475 135.67 199.495C138.001 199.495 140.332 199.495 142.734 199.495C142.734 196.564 142.734 193.633 142.734 190.614C142.201 190.614 141.668 190.614 141.119 190.614C141.119 190.148 141.119 189.682 141.119 189.201C143.983 189.201 146.847 189.201 149.798 189.201C149.798 189.667 149.798 190.134 149.798 190.614C149.265 190.614 148.732 190.614 148.183 190.614C148.183 196.942 148.183 203.269 148.183 209.788C148.716 209.788 149.249 209.788 149.798 209.788C149.798 210.188 149.798 210.588 149.798 210.999C146.934 210.999 144.07 210.999 141.119 210.999C141.119 210.6 141.119 210.2 141.119 209.788C141.652 209.788 142.185 209.788 142.734 209.788C142.734 206.858 142.734 203.927 142.734 200.908C140.403 200.908 138.072 200.908 135.67 200.908C135.67 203.838 135.67 206.769 135.67 209.788C136.203 209.788 136.735 209.788 137.284 209.788C137.284 210.188 137.284 210.588 137.284 210.999C134.42 210.999 131.556 210.999 128.605 210.999C128.605 210.6 128.605 210.2 128.605 209.788C129.138 209.788 129.671 209.788 130.22 209.788C130.22 203.461 130.22 197.133 130.22 190.614C129.687 190.614 129.154 190.614 128.605 190.614C128.605 190.148 128.605 189.682 128.605 189.201Z" fill="#174D38"/>
<path d="M84.4037 189.2C91.4455 188.404 91.4455 188.404 93.3455 189.63C94.4046 190.776 95.0132 192.147 95.6101 193.575C96.0577 194.583 96.6602 195.46 97.2833 196.365C97.4955 196.689 97.7068 197.013 97.9171 197.338C98.0187 197.494 98.1203 197.65 98.225 197.811C98.8274 198.737 99.4266 199.665 100.026 200.593C100.531 201.375 101.042 202.152 101.56 202.925C101.417 198.818 101.191 194.716 100.954 190.613C100.355 190.613 99.7552 190.613 99.1376 190.613C99.1376 190.147 99.1376 189.681 99.1376 189.2C101.269 189.2 103.4 189.2 105.596 189.2C105.596 189.667 105.596 190.133 105.596 190.613C105.063 190.613 104.531 190.613 103.982 190.613C103.977 190.77 103.973 190.927 103.968 191.089C103.844 195.385 103.677 199.678 103.485 203.971C103.45 204.769 103.415 205.566 103.38 206.363C103.312 207.908 103.243 209.453 103.174 210.998C99.4847 211.362 99.4847 211.362 98.3288 210.597C97.8798 210.005 97.5551 209.423 97.2328 208.753C97.0388 208.404 96.8448 208.056 96.6494 207.708C96.4533 207.354 96.2644 206.997 96.0765 206.639C95.5277 205.621 94.9001 204.662 94.2683 203.695C94.0368 203.332 93.8058 202.968 93.5753 202.605C93.4614 202.426 93.3475 202.247 93.2301 202.062C92.8715 201.498 92.5131 200.933 92.1546 200.369C90.7251 198.119 89.2864 195.876 87.8349 193.641C87.9727 197.169 88.2041 200.689 88.453 204.212C88.4911 204.755 88.529 205.299 88.5669 205.843C88.6587 207.158 88.7511 208.473 88.844 209.787C89.4435 209.787 90.0429 209.787 90.6606 209.787C90.6606 210.187 90.6606 210.587 90.6606 210.998C88.4626 210.998 86.2646 210.998 84 210.998C84 210.599 84 210.199 84 209.787C84.4662 209.787 84.9325 209.787 85.4128 209.787C85.4175 209.61 85.4221 209.432 85.4268 209.249C85.4708 207.554 85.5153 205.86 85.5603 204.165C85.5834 203.294 85.6063 202.423 85.6288 201.553C85.8204 194.155 85.8204 194.155 86.0183 190.613C85.4855 190.613 84.9527 190.613 84.4037 190.613C84.4037 190.147 84.4037 189.681 84.4037 189.2Z" fill="#174D38"/>
<path d="M118.308 189C118.907 190.464 119.456 191.942 119.985 193.433C120.066 193.661 120.148 193.89 120.232 194.126C120.405 194.613 120.579 195.101 120.752 195.588C121.158 196.73 121.565 197.871 121.972 199.012C122.107 199.393 122.243 199.773 122.378 200.153C123.152 202.325 123.932 204.493 124.716 206.661C124.772 206.815 124.828 206.969 124.885 207.127C125.182 207.947 125.479 208.768 125.776 209.587C126.309 209.654 126.842 209.721 127.391 209.789C127.391 210.189 127.391 210.589 127.391 211C124.127 211 120.863 211 117.501 211C117.501 210.601 117.501 210.201 117.501 209.789C117.967 209.789 118.433 209.789 118.914 209.789C118.871 209.645 118.828 209.5 118.784 209.351C118.591 208.698 118.399 208.045 118.207 207.393C118.14 207.165 118.072 206.937 118.003 206.703C117.939 206.485 117.875 206.268 117.81 206.044C117.751 205.843 117.691 205.643 117.63 205.436C117.501 204.945 117.501 204.945 117.501 204.542C115.769 204.608 114.037 204.675 112.253 204.743C111.92 206.409 111.587 208.074 111.244 209.789C111.777 209.789 112.31 209.789 112.859 209.789C112.859 210.189 112.859 210.589 112.859 211C110.394 211 107.93 211 105.391 211C105.391 210.601 105.391 210.201 105.391 209.789C106.09 209.689 106.09 209.689 106.803 209.587C108.036 206.187 109.263 202.785 110.479 199.379C110.547 199.19 110.547 199.19 110.616 198.997C111.113 197.602 111.611 196.207 112.108 194.812C112.193 194.573 112.279 194.334 112.366 194.088C112.527 193.638 112.687 193.189 112.847 192.739C113.245 191.624 113.65 190.512 114.07 189.404C114.549 189.336 115.028 189.269 115.508 189.202C115.642 189.183 115.776 189.164 115.914 189.144C116.719 189.033 117.496 188.98 118.308 189ZM114.271 193.844C114.012 195.102 113.753 196.359 113.495 197.616C113.407 198.044 113.319 198.472 113.231 198.9C113.104 199.515 112.978 200.129 112.852 200.743C112.793 201.031 112.793 201.031 112.732 201.325C112.695 201.503 112.659 201.681 112.622 201.864C112.589 202.021 112.557 202.178 112.524 202.339C112.443 202.726 112.443 202.726 112.455 203.129C113.987 203.129 115.519 203.129 117.097 203.129C116.492 200.782 115.884 198.436 115.23 196.102C115.18 195.922 115.131 195.741 115.08 195.555C115.033 195.389 114.985 195.223 114.937 195.051C114.875 194.833 114.875 194.833 114.813 194.609C114.687 194.205 114.687 194.205 114.271 193.844Z" fill="#174D38"/>
<path d="M163.32 188.999C164.013 190.471 164.561 191.983 165.099 193.517C165.192 193.781 165.285 194.044 165.378 194.308C165.623 195.001 165.868 195.694 166.112 196.388C166.495 197.478 166.879 198.568 167.264 199.658C167.36 199.928 167.455 200.199 167.551 200.469C168.093 202.007 168.643 203.542 169.207 205.073C169.259 205.214 169.311 205.355 169.364 205.5C169.614 206.176 169.864 206.852 170.116 207.527C170.204 207.766 170.292 208.004 170.383 208.249C170.501 208.564 170.501 208.564 170.62 208.886C170.788 209.384 170.788 209.384 170.788 209.788C171.321 209.788 171.853 209.788 172.402 209.788C172.402 210.187 172.402 210.587 172.402 210.999C169.139 210.999 165.875 210.999 162.512 210.999C162.512 210.599 162.512 210.199 162.512 209.788C162.979 209.788 163.445 209.788 163.925 209.788C163.459 208.123 162.993 206.457 162.512 204.742C159.915 204.642 159.915 204.642 157.265 204.54C156.932 206.272 156.599 208.003 156.256 209.788C156.788 209.788 157.321 209.788 157.87 209.788C157.87 210.187 157.87 210.587 157.87 210.999C155.406 210.999 152.941 210.999 150.402 210.999C150.402 210.599 150.402 210.199 150.402 209.788C150.935 209.788 151.468 209.788 152.017 209.788C152.042 209.646 152.067 209.505 152.092 209.36C152.228 208.736 152.419 208.158 152.633 207.556C152.718 207.313 152.804 207.07 152.893 206.819C152.987 206.554 153.081 206.288 153.176 206.023C153.275 205.745 153.373 205.467 153.471 205.188C153.679 204.602 153.887 204.016 154.095 203.43C154.457 202.412 154.818 201.393 155.178 200.375C155.432 199.659 155.687 198.943 155.944 198.227C156.046 197.942 156.149 197.656 156.251 197.371C156.302 197.23 156.353 197.09 156.405 196.945C156.716 196.076 157.017 195.205 157.312 194.331C157.504 193.763 157.7 193.197 157.897 192.631C157.989 192.365 158.078 192.097 158.166 191.829C158.84 189.769 158.84 189.769 159.445 189.357C159.825 189.244 159.825 189.244 160.494 189.201C160.642 189.173 160.79 189.145 160.943 189.117C161.74 189.026 162.518 188.979 163.32 188.999ZM159.283 194.045C159.052 195.176 158.822 196.307 158.593 197.438C158.515 197.823 158.437 198.208 158.358 198.593C158.245 199.146 158.133 199.7 158.022 200.253C157.986 200.425 157.951 200.596 157.915 200.773C157.882 200.934 157.85 201.096 157.817 201.262C157.788 201.403 157.759 201.545 157.73 201.69C157.645 202.212 157.645 202.212 157.668 203.127C159.134 203.127 160.599 203.127 162.109 203.127C161.428 200.062 160.565 197.058 159.687 194.045C159.554 194.045 159.42 194.045 159.283 194.045Z" fill="#174D38"/>
</g>
<defs>
<clipPath id="clip0_823_708">
<rect width="132.404" height="22" fill="white" transform="translate(84 189)"/>
</clipPath>
</defs>
</svg>
