<svg width="133" height="22" viewBox="0 0 133 22" fill="none" xmlns="http://www.w3.org/2000/svg">
<g clip-path="url(#clip0_712_942)">
<path d="M100.323 -0.0279108C100.506 -0.0302768 100.689 -0.0326428 100.877 -0.0350805C102.226 -0.0392293 103.36 0.125677 104.549 0.806235C104.697 0.889492 104.844 0.972749 104.996 1.05853C106.31 1.91957 107.107 3.1372 107.553 4.63321C107.907 6.37432 107.792 8.02992 106.821 9.55451C105.967 10.6796 105.014 11.4973 103.742 12.109C103.542 12.109 103.342 12.109 103.136 12.109C103.207 12.2152 103.278 12.3214 103.351 12.4308C103.566 12.7542 103.782 13.0778 103.997 13.4014C104.25 13.7799 104.504 14.1574 104.76 14.534C105.431 15.5272 106.072 16.5236 106.665 17.5656C107.652 19.4573 107.652 19.4573 109.226 20.788C110.178 21.0127 111.06 20.9532 112.017 20.7879C112.043 20.642 112.07 20.4961 112.097 20.3458C112.214 19.8026 112.367 19.3025 112.552 18.7789C112.621 18.584 112.689 18.3891 112.759 18.1883C112.834 17.9781 112.908 17.768 112.985 17.5514C113.063 17.3304 113.141 17.1093 113.221 16.8816C113.475 16.1608 113.73 15.4405 113.985 14.7202C114.16 14.2258 114.334 13.7313 114.509 13.2368C115.022 11.7839 115.538 10.3316 116.054 8.87963C116.163 8.57193 116.163 8.57193 116.275 8.25802C116.649 7.20516 117.025 6.15273 117.402 5.10105C117.511 4.79691 117.62 4.49269 117.729 4.18839C117.878 3.77135 118.029 3.35468 118.179 2.93812C118.262 2.70942 118.344 2.48072 118.429 2.2451C118.681 1.60379 118.936 0.998926 119.283 0.402565C119.918 0.196 119.918 0.196 120.658 0.125042C120.901 0.098504 121.144 0.0719659 121.394 0.0446236C122.039 0.00337761 122.674 -0.00439659 123.32 -0.00110465C124.01 1.61372 124.641 3.23999 125.225 4.89576C125.348 5.24035 125.348 5.24035 125.473 5.59191C125.736 6.3302 125.997 7.06879 126.259 7.80738C126.619 8.82219 126.98 9.83684 127.341 10.8515C127.43 11.0998 127.518 11.3482 127.609 11.6041C128.124 13.0493 128.642 14.4928 129.169 15.9336C129.227 16.0927 129.285 16.2518 129.345 16.4158C129.606 17.1289 129.868 17.8417 130.131 18.5541C130.264 18.916 130.264 18.916 130.4 19.2852C130.476 19.4901 130.551 19.6951 130.629 19.9063C130.788 20.3842 130.788 20.3842 130.788 20.7879C131.32 20.7879 131.853 20.7879 132.402 20.7879C132.402 21.1875 132.402 21.5872 132.402 21.9989C129.139 21.9989 125.875 21.9989 122.512 21.9989C122.512 21.5993 122.512 21.1996 122.512 20.7879C122.979 20.7879 123.445 20.7879 123.925 20.7879C123.459 19.1227 122.993 17.4576 122.512 15.742C119.915 15.6421 119.915 15.6421 117.265 15.5402C116.765 18.1378 116.765 18.1378 116.256 20.7879C116.788 20.7879 117.321 20.7879 117.87 20.7879C117.87 21.1875 117.87 21.5872 117.87 21.9989C112.742 21.9989 107.613 21.9989 102.329 21.9989C101.396 20.1339 100.464 18.269 99.5032 16.3475C98.8039 15.0487 98.8039 15.0487 98.0904 13.7237C98.0904 13.5905 98.0904 13.4572 98.0904 13.32C97.1912 13.4199 97.1912 13.4199 96.2739 13.5218C96.2739 15.9196 96.2739 18.3174 96.2739 20.7879C96.8067 20.7879 97.3396 20.7879 97.8885 20.7879C97.8885 21.1875 97.8885 21.5872 97.8885 21.9989C94.9579 21.9989 92.0273 21.9989 89.0078 21.9989C89.0078 21.5993 89.0078 21.1996 89.0078 20.7879C89.5407 20.7879 90.0735 20.7879 90.6225 20.7879C90.6225 14.4604 90.6225 8.13284 90.6225 1.61357C90.0896 1.61357 89.5568 1.61357 89.0078 1.61357C89.0078 1.14734 89.0078 0.681097 89.0078 0.20073C90.1912 0.171289 91.3747 0.142588 92.5582 0.114497C92.9585 0.104898 93.3589 0.0951162 93.7593 0.0851285C95.947 0.030686 98.1348 -0.0132992 100.323 -0.0279108ZM96.2739 1.61357C96.2739 5.01045 96.2739 8.40734 96.2739 11.9072C97.8664 11.9072 99.0893 11.6039 100.386 10.6583C101.389 9.58419 101.768 8.52927 101.824 7.06312C101.762 5.4403 101.173 4.13342 100.075 2.94048C98.8675 1.90301 97.8613 1.61357 96.2739 1.61357ZM119.283 5.04477C119.052 6.17581 118.822 7.30711 118.593 8.43866C118.515 8.82341 118.437 9.20809 118.358 9.5927C118.245 10.1461 118.133 10.6998 118.022 11.2536C117.986 11.4249 117.951 11.5963 117.915 11.7729C117.882 11.9345 117.85 12.096 117.817 12.2625C117.788 12.4037 117.759 12.5448 117.73 12.6903C117.645 13.2126 117.645 13.2126 117.668 14.1273C119.134 14.1273 120.599 14.1273 122.109 14.1273C121.428 11.0627 120.565 8.05772 119.687 5.04477C119.553 5.04477 119.42 5.04477 119.283 5.04477Z" fill="white"/>
<path d="M44.6055 0.201172C47.4695 0.201172 50.3335 0.201172 53.2844 0.201172C53.2844 0.66741 53.2844 1.13365 53.2844 1.61402C52.7515 1.61402 52.2187 1.61402 51.6697 1.61402C51.6697 4.54466 51.6697 7.4753 51.6697 10.4948C54.0009 10.4948 56.3321 10.4948 58.7339 10.4948C58.7339 7.56411 58.7339 4.63347 58.7339 1.61402C58.2011 1.61402 57.6682 1.61402 57.1192 1.61402C57.1192 1.14778 57.1192 0.681539 57.1192 0.201172C59.9833 0.201172 62.8473 0.201172 65.7981 0.201172C65.7981 0.66741 65.7981 1.13365 65.7981 1.61402C65.2653 1.61402 64.7324 1.61402 64.1835 1.61402C64.1835 7.94154 64.1835 14.2691 64.1835 20.7883C64.7163 20.7883 65.2491 20.7883 65.7981 20.7883C65.7981 21.188 65.7981 21.5876 65.7981 21.9993C62.9341 21.9993 60.0701 21.9993 57.1192 21.9993C57.1192 21.5997 57.1192 21.2001 57.1192 20.7883C57.6521 20.7883 58.1849 20.7883 58.7339 20.7883C58.7339 17.8577 58.7339 14.927 58.7339 11.9076C56.4027 11.9076 54.0715 11.9076 51.6697 11.9076C51.6697 14.8382 51.6697 17.7689 51.6697 20.7883C52.2025 20.7883 52.7354 20.7883 53.2844 20.7883C53.2844 21.188 53.2844 21.5876 53.2844 21.9993C50.4203 21.9993 47.5563 21.9993 44.6055 21.9993C44.6055 21.5997 44.6055 21.2001 44.6055 20.7883C45.1383 20.7883 45.6712 20.7883 46.2201 20.7883C46.2201 14.4608 46.2201 8.13328 46.2201 1.61402C45.6873 1.61402 45.1545 1.61402 44.6055 1.61402C44.6055 1.14778 44.6055 0.681539 44.6055 0.201172Z" fill="white"/>
<path d="M0.40367 0.20029C7.44546 -0.595683 7.44546 -0.595683 9.34551 0.63047C10.4046 1.77622 11.0132 3.14719 11.6101 4.57482C12.0577 5.58259 12.6602 6.45965 13.2833 7.36543C13.4955 7.68913 13.7068 8.01342 13.9171 8.33833C14.0187 8.49425 14.1203 8.65016 14.225 8.81079C14.8274 9.73686 15.4266 10.665 16.0256 11.5933C16.5306 12.375 17.0415 13.1521 17.5596 13.9251C17.4165 9.81762 17.1908 5.71602 16.9541 1.61313C16.3547 1.61313 15.7552 1.61313 15.1376 1.61313C15.1376 1.1469 15.1376 0.680657 15.1376 0.20029C17.269 0.20029 19.4004 0.20029 21.5963 0.20029C21.5963 0.666529 21.5963 1.13277 21.5963 1.61313C21.0635 1.61313 20.5306 1.61313 19.9817 1.61313C19.9772 1.77021 19.9727 1.92728 19.9681 2.08912C19.8443 6.38498 19.6769 10.6778 19.4853 14.9712C19.4498 15.7686 19.4148 16.566 19.3797 17.3633C19.3117 18.9084 19.2432 20.4534 19.1743 21.9985C15.4847 22.3616 15.4847 22.3616 14.3288 21.597C13.8798 21.0047 13.5551 20.4226 13.2328 19.753C13.0388 19.4045 12.8448 19.0559 12.6494 18.708C12.4533 18.3541 12.2644 17.997 12.0765 17.6386C11.5277 16.6213 10.9001 15.6616 10.2683 14.6946C10.0368 14.3317 9.80582 13.9685 9.57533 13.605C9.4614 13.4258 9.34748 13.2466 9.2301 13.0619C8.8715 12.4977 8.51305 11.9334 8.1546 11.369C6.72513 9.11936 5.28638 6.87614 3.83486 4.64066C3.97267 8.16947 4.20406 11.6892 4.45298 15.2118C4.49107 15.7555 4.52899 16.2992 4.56691 16.843C4.65872 18.1578 4.75113 19.4727 4.84404 20.7874C5.44349 20.7874 6.04294 20.7874 6.66055 20.7874C6.66055 21.1871 6.66055 21.5867 6.66055 21.9985C4.46257 21.9985 2.26459 21.9985 0 21.9985C0 21.5988 0 21.1992 0 20.7874C0.466239 20.7874 0.932477 20.7874 1.41284 20.7874C1.41745 20.6097 1.42206 20.432 1.42681 20.2489C1.47085 18.5543 1.51533 16.8596 1.56028 15.1649C1.58337 14.2942 1.60629 13.4234 1.62882 12.5527C1.82045 5.15535 1.82045 5.15535 2.01835 1.61313C1.4855 1.61313 0.952661 1.61313 0.40367 1.61313C0.40367 1.1469 0.40367 0.680657 0.40367 0.20029Z" fill="white"/>
<path d="M34.3081 0.00031089C34.9075 1.46423 35.4564 2.94201 35.985 4.43279C36.0665 4.66146 36.148 4.89012 36.2319 5.12572C36.4055 5.61308 36.5789 6.1005 36.7522 6.58798C37.158 7.72967 37.5648 8.87101 37.9717 10.0123C38.1073 10.3927 38.2428 10.7731 38.3783 11.1535C39.1523 13.3245 39.9322 15.4934 40.7163 17.6609C40.772 17.8148 40.8277 17.9687 40.885 18.1273C41.1817 18.9475 41.4787 19.7675 41.7759 20.5875C42.3088 20.6541 42.8416 20.7207 43.3906 20.7893C43.3906 21.1889 43.3906 21.5886 43.3906 22.0003C40.127 22.0003 36.8633 22.0003 33.5007 22.0003C33.5007 21.6007 33.5007 21.201 33.5007 20.7893C33.967 20.7893 34.4332 20.7893 34.9136 20.7893C34.8708 20.6447 34.828 20.5 34.7839 20.351C34.5911 19.6984 34.3991 19.0454 34.2071 18.3925C34.1398 18.1649 34.0724 17.9372 34.0029 17.7026C33.9392 17.4854 33.8755 17.2682 33.8098 17.0443C33.7506 16.8435 33.6914 16.6427 33.6304 16.4358C33.5007 15.9453 33.5007 15.9453 33.5007 15.5416C31.769 15.6082 30.0372 15.6748 28.253 15.7434C27.92 17.4086 27.587 19.0737 27.2438 20.7893C27.7767 20.7893 28.3095 20.7893 28.8585 20.7893C28.8585 21.1889 28.8585 21.5886 28.8585 22.0003C26.3941 22.0003 23.9297 22.0003 21.3906 22.0003C21.3906 21.6007 21.3906 21.201 21.3906 20.7893C22.09 20.6894 22.09 20.6894 22.8035 20.5875C24.0362 17.1874 25.263 13.7852 26.4791 10.379C26.5467 10.1897 26.5467 10.1897 26.6156 9.99662C27.1135 8.60193 27.611 7.20708 28.1081 5.81213C28.1934 5.57318 28.2786 5.33422 28.3664 5.08803C28.5267 4.63847 28.6869 4.18887 28.847 3.73922C29.2449 2.62366 29.6499 1.51157 30.0695 0.403981C30.5488 0.335693 31.0281 0.268592 31.5076 0.202146C31.6418 0.182893 31.7761 0.163639 31.9144 0.143803C32.7189 0.0333887 33.4964 -0.0199174 34.3081 0.00031089ZM30.2714 4.84435C30.0121 6.1016 29.7535 7.35897 29.4953 8.61643C29.4073 9.04444 29.3192 9.47242 29.2309 9.90037C29.1043 10.5145 28.9782 11.1287 28.8522 11.743C28.7926 12.0313 28.7926 12.0313 28.7318 12.3253C28.6954 12.5031 28.6591 12.6809 28.6216 12.864C28.5893 13.0209 28.5571 13.1778 28.5238 13.3394C28.443 13.726 28.443 13.726 28.4548 14.1288C29.9868 14.1288 31.5187 14.1288 33.097 14.1288C32.4923 11.7817 31.8843 9.43623 31.2301 7.10237C31.1805 6.92189 31.1309 6.74141 31.0798 6.55546C31.0326 6.38912 30.9854 6.22279 30.9368 6.05141C30.8754 5.83255 30.8754 5.83255 30.8128 5.60926C30.6867 5.20468 30.6867 5.20468 30.2714 4.84435Z" fill="white"/>
<path d="M79.3198 -0.0012801C80.0132 1.47076 80.5614 2.98258 81.0992 4.51714C81.1922 4.78063 81.2853 5.04409 81.3785 5.30752C81.6234 6.00077 81.8676 6.6943 82.1115 7.38793C82.495 8.47818 82.8794 9.56811 83.2642 10.6579C83.3598 10.9284 83.4552 11.1989 83.5506 11.4694C84.0932 13.0074 84.6429 14.5424 85.2068 16.0727C85.2587 16.2137 85.3107 16.3547 85.3642 16.4999C85.6135 17.1762 85.8639 17.852 86.1157 18.5273C86.2039 18.7656 86.2922 19.0039 86.3832 19.2494C86.5006 19.5644 86.5006 19.5644 86.6205 19.8859C86.7877 20.384 86.7877 20.384 86.7877 20.7877C87.3205 20.7877 87.8534 20.7877 88.4023 20.7877C88.4023 21.1873 88.4023 21.587 88.4023 21.9987C85.1387 21.9987 81.875 21.9987 78.5124 21.9987C78.5124 21.5991 78.5124 21.1995 78.5124 20.7877C78.9787 20.7877 79.4449 20.7877 79.9253 20.7877C79.459 19.1226 78.9928 17.4574 78.5124 15.7418C75.9148 15.6419 75.9148 15.6419 73.2647 15.54C72.9317 17.2717 72.5987 19.0035 72.2556 20.7877C72.7884 20.7877 73.3212 20.7877 73.8702 20.7877C73.8702 21.1873 73.8702 21.587 73.8702 21.9987C71.4058 21.9987 68.9414 21.9987 66.4023 21.9987C66.4023 21.5991 66.4023 21.1995 66.4023 20.7877C66.9352 20.7877 67.468 20.7877 68.017 20.7877C68.0418 20.6464 68.0666 20.5051 68.0921 20.3595C68.2282 19.7356 68.4194 19.1577 68.6327 18.5557C68.7184 18.3127 68.8042 18.0697 68.8926 17.8193C68.987 17.5538 69.0815 17.2884 69.176 17.023C69.2745 16.7448 69.373 16.4667 69.4714 16.1884C69.679 15.6021 69.8871 15.0159 70.0955 14.4299C70.4575 13.412 70.8177 12.3935 71.178 11.375C71.4317 10.6586 71.6866 9.94262 71.9437 9.22742C72.0463 8.94196 72.1488 8.65649 72.2514 8.37102C72.302 8.2304 72.3525 8.08977 72.4046 7.94489C72.7156 7.07637 73.0169 6.20513 73.3115 5.33094C73.5036 4.76334 73.6999 4.19727 73.8969 3.63138C73.9886 3.36457 74.0783 3.09705 74.1659 2.82886C74.8397 0.768764 74.8397 0.768764 75.4449 0.356501C75.825 0.243671 75.825 0.243671 76.4941 0.200555C76.6421 0.172976 76.7902 0.145397 76.9427 0.116982C77.7397 0.0256055 78.5178 -0.0213292 79.3198 -0.0012801ZM75.2831 5.04459C75.0519 6.17564 74.822 7.30693 74.5932 8.43848C74.5152 8.82323 74.4369 9.20792 74.3583 9.59253C74.2451 10.146 74.1332 10.6996 74.0216 11.2534C73.9863 11.4248 73.951 11.5962 73.9146 11.7727C73.8823 11.9343 73.8499 12.0959 73.8166 12.2623C73.7879 12.4035 73.7593 12.5447 73.7297 12.6901C73.6445 13.2124 73.6445 13.2124 73.6684 14.1272C75.1337 14.1272 76.599 14.1272 78.1088 14.1272C77.4277 11.0625 76.5654 8.05755 75.6867 5.04459C75.5535 5.04459 75.4203 5.04459 75.2831 5.04459Z" fill="white"/>
</g>
<defs>
<clipPath id="clip0_712_942">
<rect width="132.404" height="22" fill="white"/>
</clipPath>
</defs>
</svg>
